<svg width="149" height="49" viewBox="0 0 149 49" fill="none" xmlns="http://www.w3.org/2000/svg">
<mask id="mask0_301_706" style="mask-type:alpha" maskUnits="userSpaceOnUse" x="0" y="0" width="57" height="49">
<path d="M28.5003 0L56.6461 48.75H0.354492L28.5003 0Z" fill="#D9D9D9"/>
</mask>
<g mask="url(#mask0_301_706)">
<path d="M59 51L27.7671 -2L19 12.9899L41.4658 51H59Z" fill="#34353E"/>
<path d="M36 51L5.54795 -2L-3 12.9899L18.9041 51H36Z" fill="#34353E"/>
<path d="M14 51L-16.4521 -2L-25 12.9899L-3.09589 51H14Z" fill="#34353E"/>
</g>
<path d="M65.0088 34.9219C62.6912 34.9219 60.777 34.1564 59.2662 32.6255C57.7554 31.0945 57 29.2064 57 26.961C57 24.701 57.7554 22.8128 59.2662 21.2964C60.777 19.7655 62.6912 19 65.0088 19C66.4023 19 67.6857 19.3281 68.8592 19.9842C70.0473 20.6257 70.9714 21.5006 71.6314 22.6087L69.0132 24.1178C68.6318 23.4325 68.0891 22.9003 67.385 22.5212C66.681 22.1275 65.8889 21.9307 65.0088 21.9307C63.5126 21.9307 62.3025 22.3973 61.3784 23.3304C60.469 24.2636 60.0143 25.4737 60.0143 26.961C60.0143 28.4336 60.469 29.6365 61.3784 30.5696C62.3025 31.5028 63.5126 31.9694 65.0088 31.9694C65.8889 31.9694 66.681 31.7798 67.385 31.4007C68.1038 31.007 68.6465 30.4749 69.0132 29.8042L71.6314 31.3132C70.9714 32.4214 70.0546 33.3035 68.8812 33.9596C67.7077 34.6011 66.4169 34.9219 65.0088 34.9219Z" fill="#34353E"/>
<path d="M80.7972 23.6803H83.6355V34.6157H80.7972V33.391C80.1078 34.4116 79.0151 34.9219 77.5189 34.9219C76.3161 34.9219 75.3187 34.5209 74.5266 33.719C73.7492 32.9171 73.3605 31.809 73.3605 30.3947V23.6803H76.1988V30.0447C76.1988 30.7738 76.3968 31.3351 76.7928 31.7288C77.1889 32.1079 77.7169 32.2974 78.377 32.2974C79.1104 32.2974 79.6971 32.0714 80.1372 31.6194C80.5772 31.1674 80.7972 30.4894 80.7972 29.5854V23.6803Z" fill="#34353E"/>
<path d="M89.0733 25.5612C89.3373 24.8614 89.7701 24.3365 90.3714 23.9865C90.9875 23.6366 91.6696 23.4616 92.4176 23.4616V26.611C91.5522 26.509 90.7748 26.6839 90.0854 27.1359C89.4107 27.5879 89.0733 28.3388 89.0733 29.3886V34.6157H86.235V23.6803H89.0733V25.5612Z" fill="#34353E"/>
<path d="M96.9159 25.5612C97.1799 24.8614 97.6126 24.3365 98.214 23.9865C98.8301 23.6366 99.5121 23.4616 100.26 23.4616V26.611C99.3948 26.509 98.6174 26.6839 97.928 27.1359C97.2533 27.5879 96.9159 28.3388 96.9159 29.3886V34.6157H94.0776V23.6803H96.9159V25.5612Z" fill="#34353E"/>
<path d="M103.91 30.3072C104.292 31.6777 105.326 32.363 107.012 32.363C108.098 32.363 108.919 31.9985 109.477 31.2695L111.765 32.5817C110.68 34.1419 109.081 34.9219 106.968 34.9219C105.15 34.9219 103.69 34.3751 102.59 33.2816C101.49 32.1881 100.94 30.8102 100.94 29.148C100.94 27.5004 101.483 26.1299 102.568 25.0363C103.653 23.9282 105.047 23.3742 106.748 23.3742C108.362 23.3742 109.689 23.9282 110.731 25.0363C111.787 26.1444 112.315 27.515 112.315 29.148C112.315 29.5125 112.278 29.8989 112.205 30.3072H103.91ZM103.866 28.1201H109.477C109.315 27.3765 108.978 26.8224 108.465 26.4579C107.966 26.0934 107.394 25.9112 106.748 25.9112C105.986 25.9112 105.355 26.108 104.856 26.5017C104.358 26.8808 104.028 27.4202 103.866 28.1201Z" fill="#34353E"/>
<path d="M120.413 23.3742C121.616 23.3742 122.606 23.7751 123.383 24.577C124.175 25.379 124.571 26.4871 124.571 27.9014V34.6157H121.733V28.2513C121.733 27.5223 121.535 26.9682 121.139 26.5892C120.743 26.1955 120.215 25.9986 119.555 25.9986C118.822 25.9986 118.235 26.2246 117.795 26.6766C117.355 27.1286 117.135 27.8066 117.135 28.7106V34.6157H114.296V23.6803H117.135V24.9051C117.824 23.8845 118.917 23.3742 120.413 23.3742Z" fill="#34353E"/>
<path d="M132.231 34.9219C130.574 34.9219 129.188 34.3679 128.073 33.2597C126.973 32.1516 126.423 30.781 126.423 29.148C126.423 27.515 126.973 26.1444 128.073 25.0363C129.188 23.9282 130.574 23.3742 132.231 23.3742C133.302 23.3742 134.278 23.6293 135.158 24.1396C136.038 24.6499 136.705 25.3352 137.16 26.1955L134.718 27.6171C134.498 27.1651 134.16 26.8079 133.706 26.5454C133.266 26.283 132.767 26.1517 132.209 26.1517C131.359 26.1517 130.655 26.4361 130.097 27.0047C129.54 27.5588 129.261 28.2732 129.261 29.148C129.261 30.0083 129.54 30.7227 130.097 31.2914C130.655 31.8454 131.359 32.1225 132.209 32.1225C132.781 32.1225 133.288 31.9985 133.728 31.7507C134.182 31.4882 134.52 31.131 134.74 30.679L137.204 32.0787C136.72 32.939 136.038 33.6315 135.158 34.1564C134.278 34.6668 133.302 34.9219 132.231 34.9219Z" fill="#34353E"/>
<path d="M145.964 23.6803H149L144.996 34.6157C144.424 36.1904 143.661 37.3277 142.707 38.0276C141.769 38.742 140.595 39.0628 139.187 38.9899V36.3654C139.95 36.38 140.551 36.2196 140.991 35.8842C141.446 35.5489 141.805 35.0094 142.069 34.2658L137.559 23.6803H140.661L143.521 31.0289L145.964 23.6803Z" fill="#34353E"/>
<path d="M115.553 17C114.825 17 114.215 16.7676 113.725 16.3028C113.242 15.8379 113 15.263 113 14.578C113 13.893 113.242 13.318 113.725 12.8532C114.215 12.3884 114.825 12.156 115.553 12.156C116.024 12.156 116.453 12.263 116.84 12.4771C117.227 12.6911 117.52 12.9786 117.72 13.3394L116.646 13.9358C116.55 13.7462 116.401 13.5963 116.201 13.4862C116.008 13.3761 115.789 13.3211 115.544 13.3211C115.17 13.3211 114.86 13.4404 114.615 13.6789C114.37 13.9113 114.248 14.211 114.248 14.578C114.248 14.9388 114.37 15.2385 114.615 15.4771C114.86 15.7095 115.17 15.8257 115.544 15.8257C115.795 15.8257 116.018 15.7737 116.211 15.6697C116.411 15.5596 116.559 15.4098 116.656 15.2202L117.739 15.8073C117.526 16.1682 117.227 16.4587 116.84 16.6789C116.453 16.893 116.024 17 115.553 17Z" fill="#05DE90"/>
<path d="M122.444 16.3028C121.947 16.7676 121.341 17 120.625 17C119.91 17 119.304 16.7676 118.807 16.3028C118.317 15.8318 118.072 15.2569 118.072 14.578C118.072 13.8991 118.317 13.3272 118.807 12.8624C119.304 12.3914 119.91 12.156 120.625 12.156C121.341 12.156 121.947 12.3914 122.444 12.8624C122.94 13.3272 123.188 13.8991 123.188 14.578C123.188 15.2569 122.94 15.8318 122.444 16.3028ZM119.687 15.4862C119.939 15.7248 120.251 15.844 120.625 15.844C120.999 15.844 121.312 15.7248 121.564 15.4862C121.815 15.2477 121.941 14.945 121.941 14.578C121.941 14.211 121.815 13.9083 121.564 13.6697C121.312 13.4312 120.999 13.3119 120.625 13.3119C120.251 13.3119 119.939 13.4312 119.687 13.6697C119.442 13.9083 119.32 14.211 119.32 14.578C119.32 14.945 119.442 15.2477 119.687 15.4862Z" fill="#05DE90"/>
<path d="M126.755 12.156C127.284 12.156 127.719 12.3242 128.061 12.6606C128.409 12.9969 128.583 13.4618 128.583 14.055V16.8716H127.335V14.2018C127.335 13.896 127.248 13.6636 127.074 13.5046C126.9 13.3394 126.668 13.2569 126.378 13.2569C126.055 13.2569 125.797 13.3517 125.604 13.5413C125.411 13.7309 125.314 14.0153 125.314 14.3945V16.8716H124.066V12.2844H125.314V12.7982C125.617 12.37 126.097 12.156 126.755 12.156Z" fill="#05DE90"/>
<path d="M132.745 12.2844H134.119L132.281 16.8716H130.859L129.022 12.2844H130.395L131.565 15.4954L132.745 12.2844Z" fill="#05DE90"/>
<path d="M135.586 15.0642C135.753 15.6391 136.208 15.9266 136.949 15.9266C137.427 15.9266 137.788 15.7737 138.033 15.4679L139.039 16.0183C138.561 16.6728 137.859 17 136.93 17C136.131 17 135.489 16.7706 135.005 16.3119C134.522 15.8532 134.28 15.2752 134.28 14.578C134.28 13.8869 134.519 13.3119 134.996 12.8532C135.473 12.3884 136.085 12.156 136.833 12.156C137.543 12.156 138.126 12.3884 138.584 12.8532C139.048 13.318 139.28 13.893 139.28 14.578C139.28 14.7309 139.264 14.893 139.232 15.0642H135.586ZM135.566 14.1468H138.033C137.962 13.8349 137.813 13.6024 137.588 13.4495C137.369 13.2966 137.117 13.2202 136.833 13.2202C136.498 13.2202 136.221 13.3028 136.002 13.4679C135.782 13.6269 135.637 13.8532 135.566 14.1468Z" fill="#05DE90"/>
<path d="M141.399 13.0734C141.515 12.7798 141.705 12.5596 141.97 12.4128C142.24 12.2661 142.54 12.1927 142.869 12.1927V13.5138C142.489 13.4709 142.147 13.5443 141.844 13.7339C141.547 13.9235 141.399 14.2385 141.399 14.6789V16.8716H140.151V12.2844H141.399V13.0734Z" fill="#05DE90"/>
<path d="M146.497 13.422H145.404V15.3303C145.404 15.4893 145.446 15.6055 145.53 15.6789C145.614 15.7523 145.736 15.7951 145.898 15.8073C146.059 15.8135 146.259 15.8104 146.497 15.7982V16.8716C145.64 16.9633 145.034 16.8868 144.679 16.6422C144.331 16.3976 144.157 15.9602 144.157 15.3303V13.422H143.315V12.2844H144.157V11.3578L145.404 11V12.2844H146.497V13.422Z" fill="#05DE90"/>
<path d="M148.758 16.7615C148.597 16.9144 148.404 16.9908 148.178 16.9908C147.952 16.9908 147.759 16.9144 147.598 16.7615C147.436 16.6086 147.356 16.4251 147.356 16.211C147.356 15.9969 147.436 15.8135 147.598 15.6606C147.759 15.5076 147.952 15.4312 148.178 15.4312C148.404 15.4312 148.597 15.5076 148.758 15.6606C148.919 15.8135 149 15.9969 149 16.211C149 16.4251 148.919 16.6086 148.758 16.7615Z" fill="#05DE90"/>
</svg>
